<svg xmlns="http://www.w3.org/2000/svg" width="760" height="360" viewBox="0 0 760 360">
  <rect width="760" height="360" rx="28" fill="#020617"/>
  <text x="48" y="48" fill="#f8fafc" font-size="26" font-weight="700" font-family="Inter, Arial">Top Object Memories</text>
  <text x="48" y="76" fill="#94a3b8" font-size="15" font-family="Inter, Arial">80 frames · 18 canonical objects · 155 relations</text>
  
    <text x="78" y="96" fill="#cbd5e1" font-size="15" font-family="Inter, Arial">dripper</text>
    <rect x="78" y="104" width="360" height="18" rx="9" fill="#0f172a" stroke="#334155"/>
    <rect x="78" y="104" width="360" height="18" rx="9" fill="#22d3ee"/>
    <text x="456" y="119" fill="#e2e8f0" font-size="15" font-family="Inter, Arial">20</text>

    <text x="78" y="134" fill="#cbd5e1" font-size="15" font-family="Inter, Arial">scale</text>
    <rect x="78" y="142" width="360" height="18" rx="9" fill="#0f172a" stroke="#334155"/>
    <rect x="78" y="142" width="288" height="18" rx="9" fill="#22d3ee"/>
    <text x="456" y="157" fill="#e2e8f0" font-size="15" font-family="Inter, Arial">16</text>

    <text x="78" y="172" fill="#cbd5e1" font-size="15" font-family="Inter, Arial">kettle</text>
    <rect x="78" y="180" width="360" height="18" rx="9" fill="#0f172a" stroke="#334155"/>
    <rect x="78" y="180" width="270" height="18" rx="9" fill="#22d3ee"/>
    <text x="456" y="195" fill="#e2e8f0" font-size="15" font-family="Inter, Arial">15</text>

    <text x="78" y="210" fill="#cbd5e1" font-size="15" font-family="Inter, Arial">bottle</text>
    <rect x="78" y="218" width="360" height="18" rx="9" fill="#0f172a" stroke="#334155"/>
    <rect x="78" y="218" width="126" height="18" rx="9" fill="#22d3ee"/>
    <text x="456" y="233" fill="#e2e8f0" font-size="15" font-family="Inter, Arial">7</text>

    <text x="78" y="248" fill="#cbd5e1" font-size="15" font-family="Inter, Arial">coffee_scoop</text>
    <rect x="78" y="256" width="360" height="18" rx="9" fill="#0f172a" stroke="#334155"/>
    <rect x="78" y="256" width="90" height="18" rx="9" fill="#22d3ee"/>
    <text x="456" y="271" fill="#e2e8f0" font-size="15" font-family="Inter, Arial">5</text>

    <text x="78" y="286" fill="#cbd5e1" font-size="15" font-family="Inter, Arial">table</text>
    <rect x="78" y="294" width="360" height="18" rx="9" fill="#0f172a" stroke="#334155"/>
    <rect x="78" y="294" width="54" height="18" rx="9" fill="#22d3ee"/>
    <text x="456" y="309" fill="#e2e8f0" font-size="15" font-family="Inter, Arial">3</text>

  <text x="48" y="326" fill="#64748b" font-size="13" font-family="Inter, Arial">Counts reflect object observations after alias merging.</text>
</svg>
